<svg width="1087" height="292" viewBox="0 0 1087 292" fill="none" xmlns="http://www.w3.org/2000/svg">
<g filter="url(#filter0_f_305_61)">
<path d="M306.71 207V72.675H260.81V49.5H381.635V72.675H335.51V207H306.71ZM400.72 207V49.5H503.545V72.675H429.52V115.875H496.795V138.375H429.52V183.825H503.545V207H400.72ZM528.548 207V49.5H591.773C608.123 49.5 620.573 53.325 629.123 60.975C637.823 68.475 642.173 78.15 642.173 90C642.173 99.9 639.473 107.85 634.073 113.85C628.823 119.7 622.373 123.675 614.723 125.775C623.723 127.575 631.148 132.075 636.998 139.275C642.848 146.325 645.773 154.575 645.773 164.025C645.773 176.475 641.273 186.75 632.273 194.85C623.273 202.95 610.523 207 594.023 207H528.548ZM557.348 115.65H587.498C595.598 115.65 601.823 113.775 606.173 110.025C610.523 106.275 612.698 100.95 612.698 94.05C612.698 87.45 610.523 82.275 606.173 78.525C601.973 74.625 595.598 72.675 587.048 72.675H557.348V115.65ZM557.348 183.6H589.523C598.073 183.6 604.673 181.65 609.323 177.75C614.123 173.7 616.523 168.075 616.523 160.875C616.523 153.525 614.048 147.75 609.098 143.55C604.148 139.35 597.473 137.25 589.073 137.25H557.348V183.6Z" fill="#9A2AD6"/>
<path d="M306.71 207H302.71V211H306.71V207ZM306.71 72.675H310.71V68.675H306.71V72.675ZM260.81 72.675H256.81V76.675H260.81V72.675ZM260.81 49.5V45.5H256.81V49.5H260.81ZM381.635 49.5H385.635V45.5H381.635V49.5ZM381.635 72.675V76.675H385.635V72.675H381.635ZM335.51 72.675V68.675H331.51V72.675H335.51ZM335.51 207V211H339.51V207H335.51ZM310.71 207V72.675H302.71V207H310.71ZM306.71 68.675H260.81V76.675H306.71V68.675ZM264.81 72.675V49.5H256.81V72.675H264.81ZM260.81 53.5H381.635V45.5H260.81V53.5ZM377.635 49.5V72.675H385.635V49.5H377.635ZM381.635 68.675H335.51V76.675H381.635V68.675ZM331.51 72.675V207H339.51V72.675H331.51ZM335.51 203H306.71V211H335.51V203ZM400.72 207H396.72V211H400.72V207ZM400.72 49.5V45.5H396.72V49.5H400.72ZM503.545 49.5H507.545V45.5H503.545V49.5ZM503.545 72.675V76.675H507.545V72.675H503.545ZM429.52 72.675V68.675H425.52V72.675H429.52ZM429.52 115.875H425.52V119.875H429.52V115.875ZM496.795 115.875H500.795V111.875H496.795V115.875ZM496.795 138.375V142.375H500.795V138.375H496.795ZM429.52 138.375V134.375H425.52V138.375H429.52ZM429.52 183.825H425.52V187.825H429.52V183.825ZM503.545 183.825H507.545V179.825H503.545V183.825ZM503.545 207V211H507.545V207H503.545ZM404.72 207V49.5H396.72V207H404.72ZM400.72 53.5H503.545V45.5H400.72V53.5ZM499.545 49.5V72.675H507.545V49.5H499.545ZM503.545 68.675H429.52V76.675H503.545V68.675ZM425.52 72.675V115.875H433.52V72.675H425.52ZM429.52 119.875H496.795V111.875H429.52V119.875ZM492.795 115.875V138.375H500.795V115.875H492.795ZM496.795 134.375H429.52V142.375H496.795V134.375ZM425.52 138.375V183.825H433.52V138.375H425.52ZM429.52 187.825H503.545V179.825H429.52V187.825ZM499.545 183.825V207H507.545V183.825H499.545ZM503.545 203H400.72V211H503.545V203ZM528.548 207H524.548V211H528.548V207ZM528.548 49.5V45.5H524.548V49.5H528.548ZM629.123 60.975L626.456 63.956L626.483 63.9805L626.511 64.0046L629.123 60.975ZM634.073 113.85L631.1 111.174L631.096 111.178L634.073 113.85ZM614.723 125.775L613.664 121.918L613.939 129.697L614.723 125.775ZM636.998 139.275L633.894 141.797L633.907 141.813L633.92 141.829L636.998 139.275ZM632.273 194.85L634.949 197.823L634.949 197.823L632.273 194.85ZM557.348 115.65H553.348V119.65H557.348V115.65ZM606.173 78.525L603.451 81.4562L603.505 81.5064L603.561 81.5546L606.173 78.525ZM557.348 72.675V68.675H553.348V72.675H557.348ZM557.348 183.6H553.348V187.6H557.348V183.6ZM609.323 177.75L611.894 180.815L611.903 180.807L609.323 177.75ZM609.098 143.55L611.686 140.5L611.686 140.5L609.098 143.55ZM557.348 137.25V133.25H553.348V137.25H557.348ZM532.548 207V49.5H524.548V207H532.548ZM528.548 53.5H591.773V45.5H528.548V53.5ZM591.773 53.5C607.554 53.5 618.899 57.1943 626.456 63.956L631.79 57.994C622.247 49.4557 608.692 45.5 591.773 45.5V53.5ZM626.511 64.0046C634.298 70.7177 638.173 79.2715 638.173 90H646.173C646.173 77.0284 641.348 66.2323 631.735 57.9454L626.511 64.0046ZM638.173 90C638.173 99.1459 635.697 106.066 631.1 111.174L637.046 116.526C643.249 109.634 646.173 100.654 646.173 90H638.173ZM631.096 111.178C626.364 116.452 620.582 120.019 613.664 121.918L615.782 129.632C624.165 127.331 631.283 122.948 637.05 116.522L631.096 111.178ZM613.939 129.697C622.015 131.313 628.624 135.311 633.894 141.797L640.103 136.753C633.673 128.839 625.431 123.837 615.508 121.853L613.939 129.697ZM633.92 141.829C639.154 148.137 641.773 155.476 641.773 164.025H649.773C649.773 153.674 646.542 144.513 640.076 136.721L633.92 141.829ZM641.773 164.025C641.773 175.377 637.728 184.559 629.597 191.877L634.949 197.823C644.819 188.941 649.773 177.573 649.773 164.025H641.773ZM629.597 191.877C621.562 199.108 609.897 203 594.023 203V211C611.15 211 624.984 206.792 634.949 197.823L629.597 191.877ZM594.023 203H528.548V211H594.023V203ZM557.348 119.65H587.498V111.65H557.348V119.65ZM587.498 119.65C596.167 119.65 603.46 117.645 608.785 113.055L603.561 106.995C600.186 109.905 595.029 111.65 587.498 111.65V119.65ZM608.785 113.055C614.194 108.392 616.698 101.857 616.698 94.05H608.698C608.698 100.043 606.852 104.158 603.561 106.995L608.785 113.055ZM616.698 94.05C616.698 86.4792 614.153 80.1228 608.785 75.4954L603.561 81.5546C606.894 84.4272 608.698 88.4208 608.698 94.05H616.698ZM608.895 75.5938C603.663 70.7352 596.121 68.675 587.048 68.675V76.675C595.075 76.675 600.284 78.5148 603.451 81.4562L608.895 75.5938ZM587.048 68.675H557.348V76.675H587.048V68.675ZM553.348 72.675V115.65H561.348V72.675H553.348ZM557.348 187.6H589.523V179.6H557.348V187.6ZM589.523 187.6C598.634 187.6 606.278 185.525 611.894 180.815L606.753 174.685C603.068 177.775 597.512 179.6 589.523 179.6V187.6ZM611.903 180.807C617.741 175.881 620.523 169.061 620.523 160.875H612.523C612.523 167.089 610.505 171.519 606.744 174.693L611.903 180.807ZM620.523 160.875C620.523 152.524 617.656 145.566 611.686 140.5L606.51 146.6C610.44 149.934 612.523 154.526 612.523 160.875H620.523ZM611.686 140.5C605.823 135.525 598.137 133.25 589.073 133.25V141.25C596.809 141.25 602.474 143.175 606.51 146.6L611.686 140.5ZM589.073 133.25H557.348V141.25H589.073V133.25ZM553.348 137.25V183.6H561.348V137.25H553.348Z" fill="#9A2AD6"/>
</g>
<g filter="url(#filter1_d_305_61)">
<path d="M725.378 207V65.025H678.353V49.5H791.303V65.025H744.278V207H725.378ZM812.131 207V49.5H909.556V65.025H831.031V119.925H902.806V135.225H831.031V191.475H909.556V207H812.131ZM1005.96 209.7C990.508 209.7 977.158 206.325 965.908 199.575C954.808 192.675 946.183 183.15 940.033 171C933.883 158.7 930.808 144.45 930.808 128.25C930.808 112.2 933.883 98.1 940.033 85.95C946.183 73.65 954.808 64.05 965.908 57.15C977.158 50.25 990.508 46.8 1005.96 46.8C1023.96 46.8 1038.58 51.15 1049.83 59.85C1061.23 68.4 1068.51 80.4 1071.66 95.85H1050.73C1048.33 86.1 1043.38 78.3 1035.88 72.45C1028.53 66.45 1018.56 63.45 1005.96 63.45C994.708 63.45 984.883 66.075 976.483 71.325C968.083 76.425 961.558 83.85 956.908 93.6C952.408 103.2 950.158 114.75 950.158 128.25C950.158 141.75 952.408 153.375 956.908 163.125C961.558 172.725 968.083 180.15 976.483 185.4C984.883 190.5 994.708 193.05 1005.96 193.05C1018.56 193.05 1028.53 190.2 1035.88 184.5C1043.38 178.65 1048.33 170.925 1050.73 161.325H1071.66C1068.51 176.475 1061.23 188.325 1049.83 196.875C1038.58 205.425 1023.96 209.7 1005.96 209.7Z" fill="#E9E9E9"/>
</g>
<path fill-rule="evenodd" clip-rule="evenodd" d="M85.5441 145.51C85.5441 147.956 87.4602 149.949 89.8213 149.949C92.1823 149.949 94.0985 147.956 94.0985 145.51C94.0985 143.064 92.1823 141.071 89.8213 141.071C87.4602 141.071 85.5441 143.064 85.5441 145.51ZM94.0985 225.413C94.0985 222.968 92.1823 220.974 89.8213 220.974C87.4602 220.974 85.5441 222.968 85.5441 225.413C85.5441 227.859 87.4602 229.853 89.8213 229.853C92.1823 229.853 94.0985 227.859 94.0985 225.413ZM59.8808 145.51C59.8808 143.064 57.9647 141.071 55.6036 141.071C53.2426 141.071 51.3264 143.064 51.3264 145.51C51.3264 147.956 53.2426 149.949 55.6036 149.949C57.9647 149.949 59.8808 147.956 59.8808 145.51ZM59.8808 198.779C59.8808 196.333 57.9647 194.34 55.6036 194.34C53.2426 194.34 51.3264 196.333 51.3264 198.779C51.3264 201.225 53.2426 203.218 55.6036 203.218C57.9647 203.218 59.8808 201.225 59.8808 198.779ZM85.5441 101.119C85.5441 103.565 87.4602 105.558 89.8213 105.558C92.1823 105.558 94.0985 103.565 94.0985 101.119C94.0985 98.6727 92.1823 96.6795 89.8213 96.6795C87.4602 96.6795 85.5441 98.6727 85.5441 101.119ZM59.8808 105.558V133.009C63.5079 134.35 66.3565 137.311 67.644 141.071H77.7809C79.5517 135.912 84.2523 132.192 89.8213 132.192C96.8958 132.192 102.653 138.167 102.653 145.51C102.653 151.289 99.0643 156.168 94.0985 158.01V212.913C99.0643 214.755 102.653 219.634 102.653 225.413C102.653 231.193 99.0643 236.072 94.0985 237.914V252.048C94.0985 254.498 92.1866 256.487 89.8213 256.487C87.456 256.487 85.5441 254.498 85.5441 252.048V237.91C81.177 236.298 77.9221 232.33 77.1907 227.455L61.1341 210.796C61.1212 210.787 61.1212 210.769 61.1084 210.756C59.436 211.59 57.584 212.096 55.6036 212.096C48.5291 212.096 42.772 206.121 42.772 198.779C42.772 191.437 48.5291 185.462 55.6036 185.462C62.6781 185.462 68.4352 191.437 68.4352 198.779C68.4352 200.83 67.9476 202.756 67.1435 204.492C67.1564 204.505 67.1692 204.51 67.182 204.519L79.6159 217.428C81.1172 215.368 83.1617 213.796 85.5441 212.913V158.006C81.917 156.67 79.0684 153.709 77.7809 149.949H67.644C65.8732 155.107 61.1726 158.827 55.6036 158.827C48.5291 158.827 42.772 152.852 42.772 145.51C42.772 139.73 46.3606 134.851 51.3264 133.009V101.119C51.3264 98.6682 53.2383 96.6795 55.6036 96.6795H77.7809C79.0684 92.9196 81.917 89.9587 85.5441 88.6181V74.484C85.5441 72.0336 87.456 70.0449 89.8213 70.0449C92.1866 70.0449 94.0985 72.0336 94.0985 74.484V88.6181C99.0643 90.4603 102.653 95.3389 102.653 101.119C102.653 108.461 96.8958 114.436 89.8213 114.436C84.2523 114.436 79.5517 110.716 77.7809 105.558H59.8808ZM229.399 190.988C235.768 185.177 239.523 176.77 239.523 167.705C239.523 158.205 235.456 149.478 228.467 143.619C230.114 140.054 230.969 136.17 230.969 132.192C230.969 123.03 226.337 114.591 219.027 109.775C221.234 105.784 222.415 101.283 222.415 96.6795C222.415 85.2266 215.404 75.2697 205.259 71.5941C205.289 71.0748 205.306 70.5598 205.306 70.0449C205.306 55.3559 193.796 43.4103 179.643 43.4103C176.191 43.4103 172.829 44.1383 169.689 45.541C166.011 33.9816 155.434 25.6539 143.286 25.6539C125.288 25.6539 117.285 42.5047 115.57 51.4184C115.54 51.5649 115.579 51.7069 115.57 51.8579C115.557 52.0088 115.484 52.1331 115.484 52.2885V260.66C114.518 273.263 104.205 283.122 91.9599 283.122C79.757 283.122 69.4746 273.227 68.5465 260.589C68.3754 258.276 66.3907 256.487 64.158 256.487C62.8236 256.487 61.5661 257.135 60.7534 258.236C57.4343 262.769 52.4385 265.365 47.0492 265.365C37.6137 265.365 29.9404 257.402 29.9404 247.609C29.9404 243.578 31.292 239.725 33.8583 236.462C35.0132 234.993 35.1415 232.92 34.1706 231.309C33.2039 229.697 31.3733 228.898 29.5683 229.338C28.1354 229.684 26.8566 229.853 25.6632 229.853C16.2277 229.853 8.55441 221.889 8.55441 212.096C8.55441 204.776 13.0326 198.117 19.6922 195.525C21.2791 194.908 22.3655 193.381 22.4639 191.632C22.5622 189.878 21.6555 188.227 20.1585 187.424C12.9984 183.593 8.55441 176.033 8.55441 167.705C8.55441 159.875 12.4338 152.772 18.9352 148.706C19.9489 148.071 20.6632 147.028 20.9112 145.825C21.155 144.617 20.907 143.366 20.2269 142.358C18.1867 139.335 17.1088 135.824 17.1088 132.192C17.1088 124.819 21.6341 118.147 28.3621 115.586C29.6923 115.08 30.6975 113.921 31.0439 112.496C31.3861 111.067 31.0226 109.553 30.0773 108.456C27.2287 105.158 25.6632 100.977 25.6632 96.6795C25.6632 88.0765 31.6043 80.7476 39.7823 79.2471C40.9286 79.0341 41.9508 78.346 42.5967 77.3383C43.2425 76.3306 43.4649 75.0921 43.2169 73.9113C42.9175 72.5263 42.772 71.2612 42.772 70.0449C42.772 60.2522 50.4453 52.2885 59.8808 52.2885C63.5849 52.2885 67.1564 53.5714 70.2146 55.9996C71.4592 56.985 73.1231 57.1892 74.5474 56.5323C75.9802 55.8708 76.9469 54.4548 77.0795 52.8389C77.8921 42.5757 86.3097 34.5321 96.2371 34.5321C101.002 34.5321 104.941 36.1213 108.277 39.3884C110.001 41.0709 112.709 40.9865 114.325 39.202C115.946 37.4175 115.869 34.612 114.15 32.9295C109.218 28.0998 103.192 25.6539 96.2371 25.6539C84.0898 25.6539 73.5123 33.9816 69.8339 45.541C66.6944 44.1383 63.3325 43.4103 59.8808 43.4103C45.7276 43.4103 34.2176 55.3559 34.2176 70.0449C34.2176 70.5598 34.2347 71.0748 34.2647 71.5941C24.1191 75.2697 17.1088 85.2266 17.1088 96.6795C17.1088 101.283 18.2893 105.784 20.4964 109.775C13.1866 114.591 8.55441 123.03 8.55441 132.192C8.55441 136.17 9.40985 140.054 11.0566 143.619C4.06762 149.478 0 158.205 0 167.705C0 176.77 3.75538 185.177 10.1241 190.988C3.87515 195.947 0 203.733 0 212.096C0 225.826 10.0643 237.164 22.9386 238.58C21.9121 241.456 21.386 244.493 21.386 247.609C21.386 262.298 32.896 274.244 47.0492 274.244C52.3615 274.244 57.4172 272.57 61.6602 269.503C66.0229 282.616 78.0803 292 91.9599 292C108.675 292 122.76 278.496 124.026 261.264C124.03 261.206 124.005 261.153 124.005 261.095C124.009 261.033 124.039 260.988 124.039 260.926V52.7768C124.672 50.0512 128.894 34.5321 143.286 34.5321C153.214 34.5321 161.631 42.5757 162.444 52.8389C162.576 54.4548 163.543 55.8708 164.976 56.5323C166.4 57.1892 168.064 56.985 169.309 55.9996C172.367 53.5714 175.938 52.2885 179.643 52.2885C189.078 52.2885 196.751 60.2522 196.751 70.0449C196.751 71.2612 196.606 72.5263 196.307 73.9113C196.058 75.0921 196.281 76.3306 196.927 77.3383C197.573 78.346 198.595 79.0341 199.741 79.2471C207.919 80.7476 213.86 88.0765 213.86 96.6795C213.86 100.977 212.295 105.158 209.446 108.456C208.501 109.553 208.137 111.067 208.479 112.496C208.826 113.921 209.831 115.08 211.161 115.586C217.889 118.147 222.415 124.819 222.415 132.192C222.415 135.824 221.337 139.335 219.296 142.358C218.616 143.366 218.368 144.617 218.612 145.825C218.86 147.028 219.575 148.071 220.588 148.706C227.09 152.772 230.969 159.875 230.969 167.705C230.969 176.033 226.525 183.593 219.365 187.424C217.868 188.227 216.961 189.878 217.06 191.632C217.158 193.381 218.244 194.908 219.831 195.525C226.491 198.117 230.969 204.776 230.969 212.096C230.969 221.889 223.296 229.853 213.86 229.853C212.667 229.853 211.388 229.684 209.955 229.338C208.159 228.898 206.324 229.697 205.353 231.309C204.382 232.92 204.51 234.993 205.665 236.462C208.231 239.725 209.583 243.578 209.583 247.609C209.583 257.402 201.91 265.365 192.474 265.365C187.068 265.365 182.081 262.737 178.796 258.152C177.692 256.62 175.772 255.994 174.022 256.589C173.389 256.807 172.833 257.166 172.384 257.624C171.589 258.36 171.062 259.408 170.977 260.589C170.049 273.227 159.766 283.122 147.564 283.122C142.187 283.122 137.114 281.288 132.893 277.822C131.032 276.299 128.35 276.627 126.883 278.545C125.416 280.467 125.733 283.259 127.58 284.782C133.248 289.434 140.348 292 147.564 292C161.452 292 173.518 282.598 177.872 269.472C182.102 272.561 187.149 274.244 192.474 274.244C206.627 274.244 218.137 262.298 218.137 247.609C218.137 244.493 217.611 241.456 216.585 238.58C229.459 237.164 239.523 225.826 239.523 212.096C239.523 203.733 235.648 195.947 229.399 190.988ZM153.979 225.413C153.979 227.864 155.891 229.853 158.257 229.853C164.493 229.853 171.088 236.698 171.088 243.17C171.088 245.62 173 247.609 175.365 247.609C177.731 247.609 179.643 245.62 179.643 243.17C179.643 231.761 169.249 220.974 158.257 220.974C155.891 220.974 153.979 222.963 153.979 225.413ZM192.474 105.558C186.238 105.558 179.643 98.7126 179.643 92.2404C179.643 89.79 177.731 87.8013 175.365 87.8013C173 87.8013 171.088 89.79 171.088 92.2404C171.088 103.649 181.482 114.436 192.474 114.436C194.839 114.436 196.751 112.447 196.751 109.997C196.751 107.546 194.839 105.558 192.474 105.558ZM141.148 203.218C143.513 203.218 145.425 201.229 145.425 198.779C145.425 192.307 152.02 185.462 158.257 185.462C160.622 185.462 162.534 183.473 162.534 181.022C162.534 178.572 160.622 176.583 158.257 176.583C147.264 176.583 136.87 187.37 136.87 198.779C136.87 201.229 138.782 203.218 141.148 203.218ZM158.257 149.949C160.622 149.949 162.534 147.96 162.534 145.51C162.534 143.059 160.622 141.071 158.257 141.071C152.02 141.071 145.425 134.225 145.425 127.753C145.425 125.303 143.513 123.314 141.148 123.314C138.782 123.314 136.87 125.303 136.87 127.753C136.87 139.162 147.264 149.949 158.257 149.949ZM201.029 132.192C198.663 132.192 196.751 134.181 196.751 136.631C196.751 143.104 190.156 149.949 183.92 149.949C181.554 149.949 179.643 151.937 179.643 154.388C179.643 156.838 181.554 158.827 183.92 158.827C194.912 158.827 205.306 148.04 205.306 136.631C205.306 134.181 203.394 132.192 201.029 132.192ZM183.92 185.462C181.554 185.462 179.643 187.45 179.643 189.901C179.643 192.351 181.554 194.34 183.92 194.34C190.156 194.34 196.751 201.185 196.751 207.657C196.751 210.107 198.663 212.096 201.029 212.096C203.394 212.096 205.306 210.107 205.306 207.657C205.306 196.249 194.912 185.462 183.92 185.462ZM136.87 87.8013C136.87 76.3928 147.264 65.6058 158.257 65.6058C160.622 65.6058 162.534 67.5945 162.534 70.0449C162.534 72.4953 160.622 74.484 158.257 74.484C152.02 74.484 145.425 81.3291 145.425 87.8013C145.425 90.2517 143.513 92.2404 141.148 92.2404C138.782 92.2404 136.87 90.2517 136.87 87.8013Z" fill="#F4E0FF"/>
<path d="M298.128 277V243.4H319.104V247.048H302.16V258.232H317.664V261.88H302.16V273.352H319.104V277H298.128ZM325.805 277L333.917 265.096L325.613 253.192H330.077L336.701 262.792L343.325 253.192H347.789L339.485 265.096L347.597 277H343.133L336.701 267.352L330.221 277H325.805ZM354.347 287.56V253.192H357.611L358.091 257.128H358.379C358.987 255.848 359.963 254.776 361.307 253.912C362.651 253.048 364.235 252.616 366.059 252.616C367.979 252.616 369.707 253.096 371.243 254.056C372.811 255.016 374.043 256.44 374.939 258.328C375.835 260.184 376.283 262.456 376.283 265.144C376.283 267.8 375.819 270.056 374.891 271.912C373.995 273.768 372.747 275.176 371.147 276.136C369.579 277.096 367.771 277.576 365.723 277.576C363.899 277.576 362.347 277.192 361.067 276.424C359.819 275.624 358.923 274.696 358.379 273.64V287.56H354.347ZM365.243 273.736C367.259 273.736 368.923 273.032 370.235 271.624C371.547 270.184 372.203 268.008 372.203 265.096C372.203 262.184 371.547 260.024 370.235 258.616C368.923 257.176 367.259 256.456 365.243 256.456C363.227 256.456 361.563 257.176 360.251 258.616C358.939 260.024 358.283 262.184 358.283 265.096C358.283 268.008 358.939 270.184 360.251 271.624C361.563 273.032 363.227 273.736 365.243 273.736ZM393.544 277.576C391.304 277.576 389.32 277.064 387.592 276.04C385.896 274.984 384.552 273.528 383.56 271.672C382.568 269.784 382.072 267.592 382.072 265.096C382.072 262.6 382.552 260.424 383.512 258.568C384.504 256.68 385.864 255.224 387.592 254.2C389.32 253.144 391.336 252.616 393.64 252.616C395.944 252.616 397.912 253.144 399.544 254.2C401.176 255.224 402.424 256.584 403.288 258.28C404.152 259.976 404.584 261.8 404.584 263.752C404.584 264.104 404.568 264.456 404.536 264.808C404.536 265.16 404.536 265.56 404.536 266.008H386.056C386.152 267.768 386.552 269.24 387.256 270.424C387.992 271.576 388.904 272.44 389.992 273.016C391.112 273.592 392.296 273.88 393.544 273.88C395.304 273.88 396.68 273.512 397.672 272.776C398.664 272.04 399.416 271.016 399.928 269.704H403.912C403.368 271.912 402.232 273.784 400.504 275.32C398.776 276.824 396.456 277.576 393.544 277.576ZM393.544 256.216C391.688 256.216 390.056 256.776 388.648 257.896C387.272 259.016 386.424 260.584 386.104 262.6H400.6C400.472 260.616 399.752 259.064 398.44 257.944C397.16 256.792 395.528 256.216 393.544 256.216ZM411.237 277V273.544H417.333V257.848C417.333 257.048 416.949 256.648 416.181 256.648H411.861V253.192H417.669C418.725 253.192 419.573 253.48 420.213 254.056C420.853 254.632 421.173 255.48 421.173 256.6V257.608H421.365C421.749 256.008 422.469 254.776 423.525 253.912C424.613 253.048 426.117 252.616 428.037 252.616H432.405V256.888H427.461C425.509 256.888 424.005 257.544 422.949 258.856C421.893 260.136 421.365 261.784 421.365 263.8V273.544H428.853V277H411.237ZM452.402 277C450.226 277 448.514 276.472 447.266 275.416C446.018 274.36 445.394 272.456 445.394 269.704V256.648H439.346V253.192H442.946C444.578 253.192 445.522 252.392 445.778 250.792L446.45 247.096H449.426V253.192H458.93V256.648H449.426V269.704C449.426 271.048 449.73 271.992 450.338 272.536C450.978 273.08 452.066 273.352 453.602 273.352H458.93V277H452.402ZM506.845 277.576C504.477 277.576 502.413 277.128 500.653 276.232C498.925 275.336 497.581 274.088 496.621 272.488C495.693 270.888 495.213 269.016 495.181 266.872H499.405C499.437 268.792 500.077 270.456 501.325 271.864C502.605 273.24 504.445 273.928 506.845 273.928C509.053 273.928 510.749 273.4 511.933 272.344C513.149 271.256 513.757 269.96 513.757 268.456C513.757 267.208 513.469 266.168 512.893 265.336C512.317 264.472 511.373 263.72 510.061 263.08C508.781 262.408 507.053 261.72 504.877 261.016C501.805 260.088 499.565 258.824 498.157 257.224C496.749 255.624 496.045 253.64 496.045 251.272C496.045 249.672 496.461 248.232 497.293 246.952C498.125 245.672 499.325 244.664 500.893 243.928C502.461 243.192 504.365 242.824 506.605 242.824C508.717 242.824 510.557 243.224 512.125 244.024C513.725 244.792 514.957 245.88 515.821 247.288C516.717 248.696 517.165 250.312 517.165 252.136H512.941C512.941 251.24 512.701 250.36 512.221 249.496C511.741 248.632 511.021 247.912 510.061 247.336C509.101 246.76 507.885 246.472 506.413 246.472C504.653 246.472 503.181 246.904 501.997 247.768C500.813 248.6 500.221 249.752 500.221 251.224C500.221 252.344 500.477 253.288 500.989 254.056C501.533 254.824 502.413 255.528 503.629 256.168C504.845 256.776 506.493 257.432 508.573 258.136C510.525 258.776 512.189 259.528 513.565 260.392C514.973 261.224 516.045 262.264 516.781 263.512C517.549 264.76 517.933 266.312 517.933 268.168C517.933 269.992 517.469 271.608 516.541 273.016C515.613 274.424 514.317 275.544 512.653 276.376C510.989 277.176 509.053 277.576 506.845 277.576ZM537.306 277C535.13 277 533.418 276.472 532.17 275.416C530.922 274.36 530.298 272.456 530.298 269.704V256.648H524.25V253.192H527.85C529.482 253.192 530.426 252.392 530.682 250.792L531.354 247.096H534.33V253.192H543.834V256.648H534.33V269.704C534.33 271.048 534.634 271.992 535.242 272.536C535.882 273.08 536.97 273.352 538.506 273.352H543.834V277H537.306ZM561.431 277.576C558.551 277.576 556.375 276.712 554.903 274.984C553.431 273.256 552.695 270.76 552.695 267.496V253.192H556.727V267.016C556.727 269.128 557.191 270.792 558.119 272.008C559.079 273.192 560.519 273.784 562.439 273.784C564.359 273.784 565.975 273.144 567.287 271.864C568.599 270.552 569.255 268.68 569.255 266.248V253.192H573.287V277H569.927L569.495 273.4H569.255C568.615 274.552 567.607 275.544 566.231 276.376C564.855 277.176 563.255 277.576 561.431 277.576ZM590.597 277.576C588.581 277.576 586.773 277.096 585.173 276.136C583.605 275.176 582.373 273.768 581.477 271.912C580.581 270.024 580.133 267.736 580.133 265.048C580.133 262.392 580.581 260.136 581.477 258.28C582.373 256.424 583.605 255.016 585.173 254.056C586.773 253.096 588.581 252.616 590.597 252.616C592.485 252.616 594.037 252.984 595.253 253.72C596.501 254.456 597.429 255.416 598.037 256.6V242.44H602.069V277H598.757L598.325 273.304H598.037C597.397 274.616 596.453 275.656 595.205 276.424C593.957 277.192 592.421 277.576 590.597 277.576ZM591.125 273.736C593.141 273.736 594.805 273.032 596.117 271.624C597.429 270.184 598.085 268.008 598.085 265.096C598.085 262.184 597.429 260.024 596.117 258.616C594.805 257.176 593.141 256.456 591.125 256.456C589.109 256.456 587.445 257.176 586.133 258.616C584.853 260.024 584.213 262.184 584.213 265.096C584.213 268.008 584.853 270.184 586.133 271.624C587.445 273.032 589.109 273.736 591.125 273.736ZM619.954 277.576C617.714 277.576 615.73 277.064 614.002 276.04C612.306 274.984 610.962 273.528 609.97 271.672C608.978 269.784 608.482 267.592 608.482 265.096C608.482 262.6 608.962 260.424 609.922 258.568C610.914 256.68 612.274 255.224 614.002 254.2C615.73 253.144 617.746 252.616 620.05 252.616C622.354 252.616 624.322 253.144 625.954 254.2C627.586 255.224 628.834 256.584 629.698 258.28C630.562 259.976 630.994 261.8 630.994 263.752C630.994 264.104 630.978 264.456 630.946 264.808C630.946 265.16 630.946 265.56 630.946 266.008H612.466C612.562 267.768 612.962 269.24 613.666 270.424C614.402 271.576 615.314 272.44 616.402 273.016C617.522 273.592 618.706 273.88 619.954 273.88C621.714 273.88 623.09 273.512 624.082 272.776C625.074 272.04 625.826 271.016 626.338 269.704H630.322C629.778 271.912 628.642 273.784 626.914 275.32C625.186 276.824 622.866 277.576 619.954 277.576ZM619.954 256.216C618.098 256.216 616.466 256.776 615.058 257.896C613.682 259.016 612.834 260.584 612.514 262.6H627.01C626.882 260.616 626.162 259.064 624.85 257.944C623.57 256.792 621.938 256.216 619.954 256.216ZM637.839 277V253.192H641.199L641.631 256.792H641.871C642.511 255.64 643.519 254.664 644.895 253.864C646.271 253.032 647.855 252.616 649.647 252.616C652.559 252.616 654.735 253.48 656.175 255.208C657.647 256.936 658.383 259.432 658.383 262.696V277H654.351V263.176C654.351 261.064 653.887 259.416 652.959 258.232C652.031 257.016 650.591 256.408 648.639 256.408C646.751 256.408 645.151 257.064 643.839 258.376C642.527 259.656 641.871 261.512 641.871 263.944V277H637.839ZM678.812 277C676.636 277 674.924 276.472 673.676 275.416C672.428 274.36 671.804 272.456 671.804 269.704V256.648H665.756V253.192H669.356C670.988 253.192 671.932 252.392 672.188 250.792L672.86 247.096H675.836V253.192H685.34V256.648H675.836V269.704C675.836 271.048 676.14 271.992 676.748 272.536C677.388 273.08 678.476 273.352 680.012 273.352H685.34V277H678.812ZM733.159 277.576C730.439 277.576 728.087 276.856 726.103 275.416C724.151 273.976 722.647 271.96 721.591 269.368C720.567 266.776 720.055 263.72 720.055 260.2C720.055 256.712 720.567 253.672 721.591 251.08C722.647 248.456 724.151 246.424 726.103 244.984C728.087 243.544 730.439 242.824 733.159 242.824C736.615 242.824 739.399 243.784 741.511 245.704C743.623 247.592 744.855 250.12 745.207 253.288H740.743C740.423 251.4 739.623 249.816 738.343 248.536C737.063 247.256 735.335 246.616 733.159 246.616C730.375 246.616 728.183 247.832 726.583 250.264C724.983 252.664 724.183 255.976 724.183 260.2C724.183 264.456 724.983 267.784 726.583 270.184C728.183 272.584 730.375 273.784 733.159 273.784C735.431 273.784 737.175 273.176 738.391 271.96C739.639 270.744 740.423 269.176 740.743 267.256H745.207C744.695 270.456 743.415 272.984 741.367 274.84C739.351 276.664 736.615 277.576 733.159 277.576ZM761.22 277.576C758.98 277.576 756.996 277.064 755.268 276.04C753.54 275.016 752.18 273.576 751.188 271.72C750.196 269.832 749.7 267.624 749.7 265.096C749.7 262.568 750.196 260.376 751.188 258.52C752.18 256.632 753.54 255.176 755.268 254.152C756.996 253.128 758.98 252.616 761.22 252.616C763.46 252.616 765.444 253.128 767.172 254.152C768.9 255.176 770.26 256.632 771.252 258.52C772.244 260.376 772.74 262.568 772.74 265.096C772.74 267.624 772.244 269.832 771.252 271.72C770.26 273.576 768.9 275.016 767.172 276.04C765.444 277.064 763.46 277.576 761.22 277.576ZM761.22 273.736C762.596 273.736 763.844 273.432 764.964 272.824C766.084 272.216 766.964 271.272 767.604 269.992C768.276 268.712 768.612 267.08 768.612 265.096C768.612 263.112 768.276 261.48 767.604 260.2C766.964 258.92 766.084 257.976 764.964 257.368C763.844 256.76 762.596 256.456 761.22 256.456C759.876 256.456 758.644 256.76 757.524 257.368C756.404 257.976 755.508 258.92 754.836 260.2C754.164 261.48 753.828 263.112 753.828 265.096C753.828 268.072 754.548 270.264 755.988 271.672C757.428 273.048 759.172 273.736 761.22 273.736ZM779.345 277V253.192H782.705L783.137 256.792H783.377C784.017 255.64 785.025 254.664 786.401 253.864C787.777 253.032 789.361 252.616 791.153 252.616C794.065 252.616 796.241 253.48 797.681 255.208C799.153 256.936 799.889 259.432 799.889 262.696V277H795.857V263.176C795.857 261.064 795.393 259.416 794.465 258.232C793.537 257.016 792.097 256.408 790.145 256.408C788.257 256.408 786.657 257.064 785.345 258.376C784.033 259.656 783.377 261.512 783.377 263.944V277H779.345ZM818.062 277.576C815.022 277.576 812.558 276.872 810.67 275.464C808.814 274.024 807.774 272.056 807.55 269.56H811.726C811.918 270.872 812.558 271.944 813.646 272.776C814.766 273.608 816.27 274.024 818.158 274.024C819.95 274.024 821.278 273.64 822.142 272.872C823.038 272.104 823.486 271.224 823.486 270.232C823.486 268.888 822.958 267.976 821.902 267.496C820.846 266.984 819.262 266.6 817.15 266.344C814.622 266.056 812.526 265.368 810.862 264.28C809.198 263.192 808.366 261.56 808.366 259.384C808.366 257.432 809.182 255.816 810.814 254.536C812.446 253.256 814.67 252.616 817.486 252.616C820.27 252.616 822.462 253.256 824.062 254.536C825.662 255.784 826.574 257.576 826.798 259.912H822.814C822.718 258.76 822.158 257.848 821.134 257.176C820.142 256.472 818.894 256.12 817.39 256.12C815.822 256.12 814.606 256.424 813.742 257.032C812.878 257.608 812.446 258.376 812.446 259.336C812.446 260.296 812.926 261.096 813.886 261.736C814.878 262.344 816.43 262.744 818.542 262.936C820.206 263.128 821.726 263.448 823.102 263.896C824.478 264.344 825.566 265.048 826.366 266.008C827.198 266.968 827.614 268.312 827.614 270.04C827.646 271.48 827.246 272.776 826.414 273.928C825.614 275.048 824.494 275.944 823.054 276.616C821.614 277.256 819.95 277.576 818.062 277.576ZM844.444 277.576C841.564 277.576 839.388 276.712 837.916 274.984C836.444 273.256 835.708 270.76 835.708 267.496V253.192H839.74V267.016C839.74 269.128 840.204 270.792 841.132 272.008C842.092 273.192 843.532 273.784 845.452 273.784C847.372 273.784 848.988 273.144 850.3 271.864C851.612 270.552 852.268 268.68 852.268 266.248V253.192H856.3V277H852.94L852.508 273.4H852.268C851.628 274.552 850.62 275.544 849.244 276.376C847.868 277.176 846.268 277.576 844.444 277.576ZM863.625 277V273.544H871.737V247.096C871.737 246.296 871.337 245.896 870.537 245.896H864.489V242.44H871.497C872.873 242.44 873.929 242.808 874.665 243.544C875.401 244.28 875.769 245.336 875.769 246.712V273.544H883.881V277H863.625ZM905.222 277C903.046 277 901.334 276.472 900.086 275.416C898.838 274.36 898.214 272.456 898.214 269.704V256.648H892.166V253.192H895.766C897.398 253.192 898.342 252.392 898.598 250.792L899.27 247.096H902.246V253.192H911.75V256.648H902.246V269.704C902.246 271.048 902.55 271.992 903.158 272.536C903.798 273.08 904.886 273.352 906.422 273.352H911.75V277H905.222ZM930.74 248.968C929.78 248.968 928.98 248.648 928.34 248.008C927.7 247.368 927.38 246.6 927.38 245.704C927.38 244.776 927.7 244.008 928.34 243.4C928.98 242.76 929.78 242.44 930.74 242.44C931.668 242.44 932.452 242.76 933.092 243.4C933.764 244.008 934.1 244.776 934.1 245.704C934.1 246.6 933.764 247.368 933.092 248.008C932.452 248.648 931.668 248.968 930.74 248.968ZM921.428 277V273.544H929.012V257.848C929.012 257.048 928.612 256.648 927.812 256.648H922.244V253.192H928.772C931.62 253.192 933.044 254.616 933.044 257.464V273.544H940.628V277H921.428ZM949.153 277V253.192H952.513L952.945 256.792H953.185C953.825 255.64 954.833 254.664 956.209 253.864C957.585 253.032 959.169 252.616 960.961 252.616C963.873 252.616 966.049 253.48 967.489 255.208C968.961 256.936 969.697 259.432 969.697 262.696V277H965.665V263.176C965.665 261.064 965.201 259.416 964.273 258.232C963.345 257.016 961.905 256.408 959.953 256.408C958.065 256.408 956.465 257.064 955.153 258.376C953.841 259.656 953.185 261.512 953.185 263.944V277H949.153ZM987.198 269.992C985.534 269.992 984.046 269.688 982.734 269.08L981.102 271.048C980.75 271.528 980.654 272.008 980.814 272.488C981.006 272.936 981.47 273.16 982.206 273.16H988.494C991.342 273.16 993.646 273.72 995.406 274.84C997.166 275.928 998.046 277.672 998.046 280.072C998.046 281.512 997.678 282.84 996.942 284.056C996.206 285.272 995.038 286.248 993.438 286.984C991.87 287.752 989.806 288.136 987.246 288.136C983.918 288.136 981.246 287.512 979.23 286.264C977.214 285.016 976.206 283.112 976.206 280.552C976.206 279.624 976.43 278.76 976.878 277.96C977.358 277.192 977.95 276.504 978.654 275.896C977.726 275.32 977.15 274.456 976.926 273.304C976.734 272.152 977.086 271.016 977.982 269.896L980.142 267.208C978.606 265.608 977.838 263.64 977.838 261.304C977.838 259.768 978.206 258.344 978.942 257.032C979.678 255.688 980.734 254.616 982.11 253.816C983.518 253.016 985.214 252.616 987.198 252.616C988.478 252.616 989.662 252.808 990.75 253.192H999.678V256.216L995.214 256.36V256.696C996.046 258.072 996.462 259.608 996.462 261.304C996.462 262.84 996.094 264.28 995.358 265.624C994.654 266.936 993.598 267.992 992.19 268.792C990.814 269.592 989.15 269.992 987.198 269.992ZM987.198 266.536C988.766 266.536 990.046 266.072 991.038 265.144C992.062 264.216 992.574 262.936 992.574 261.304C992.574 259.672 992.062 258.408 991.038 257.512C990.046 256.584 988.766 256.12 987.198 256.12C985.598 256.12 984.286 256.584 983.262 257.512C982.238 258.408 981.726 259.672 981.726 261.304C981.726 262.936 982.238 264.216 983.262 265.144C984.286 266.072 985.598 266.536 987.198 266.536ZM980.19 280.408C980.19 281.816 980.846 282.872 982.158 283.576C983.47 284.28 985.166 284.632 987.246 284.632C989.262 284.632 990.894 284.232 992.142 283.432C993.422 282.632 994.062 281.56 994.062 280.216C994.062 279.16 993.614 278.264 992.718 277.528C991.822 276.824 990.174 276.472 987.774 276.472H982.35C980.91 277.528 980.19 278.84 980.19 280.408Z" fill="#B4B4B4"/>
<defs>
<filter id="filter0_f_305_61" x="256.81" y="45.5" width="392.963" height="165.5" filterUnits="userSpaceOnUse" color-interpolation-filters="sRGB">
<feFlood flood-opacity="0" result="BackgroundImageFix"/>
<feBlend mode="normal" in="SourceGraphic" in2="BackgroundImageFix" result="shape"/>
<feGaussianBlur stdDeviation="2" result="effect1_foregroundBlur_305_61"/>
</filter>
<filter id="filter1_d_305_61" x="674.353" y="46.8" width="401.305" height="170.9" filterUnits="userSpaceOnUse" color-interpolation-filters="sRGB">
<feFlood flood-opacity="0" result="BackgroundImageFix"/>
<feColorMatrix in="SourceAlpha" type="matrix" values="0 0 0 0 0 0 0 0 0 0 0 0 0 0 0 0 0 0 127 0" result="hardAlpha"/>
<feOffset dy="4"/>
<feGaussianBlur stdDeviation="2"/>
<feComposite in2="hardAlpha" operator="out"/>
<feColorMatrix type="matrix" values="0 0 0 0 0 0 0 0 0 0 0 0 0 0 0 0 0 0 0.25 0"/>
<feBlend mode="normal" in2="BackgroundImageFix" result="effect1_dropShadow_305_61"/>
<feBlend mode="normal" in="SourceGraphic" in2="effect1_dropShadow_305_61" result="shape"/>
</filter>
</defs>
</svg>
