<svg width="895" height="266" viewBox="0 0 895 266" fill="none" xmlns="http://www.w3.org/2000/svg">
<g filter="url(#filter0_f_307_76)">
<path d="M78.727 215V71.72H29.767V47H158.647V71.72H109.447V215H78.727ZM179.004 215V47H288.684V71.72H209.724V117.8H281.484V141.8H209.724V190.28H288.684V215H179.004ZM315.354 215V47H382.794C400.234 47 413.514 51.08 422.634 59.24C431.914 67.24 436.554 77.56 436.554 90.2C436.554 100.76 433.674 109.24 427.914 115.64C422.314 121.88 415.434 126.12 407.274 128.36C416.874 130.28 424.794 135.08 431.034 142.76C437.274 150.28 440.394 159.08 440.394 169.16C440.394 182.44 435.594 193.4 425.994 202.04C416.394 210.68 402.794 215 385.194 215H315.354ZM346.074 117.56H378.234C386.874 117.56 393.514 115.56 398.154 111.56C402.794 107.56 405.114 101.88 405.114 94.52C405.114 87.48 402.794 81.96 398.154 77.96C393.674 73.8 386.874 71.72 377.754 71.72H346.074V117.56ZM346.074 190.04H380.394C389.514 190.04 396.554 187.96 401.514 183.8C406.634 179.48 409.194 173.48 409.194 165.8C409.194 157.96 406.554 151.8 401.274 147.32C395.994 142.84 388.874 140.6 379.914 140.6H346.074V190.04Z" fill="#9A2AD6"/>
<path d="M78.727 215H74.727V219H78.727V215ZM78.727 71.72H82.727V67.72H78.727V71.72ZM29.767 71.72H25.767V75.72H29.767V71.72ZM29.767 47V43H25.767V47H29.767ZM158.647 47H162.647V43H158.647V47ZM158.647 71.72V75.72H162.647V71.72H158.647ZM109.447 71.72V67.72H105.447V71.72H109.447ZM109.447 215V219H113.447V215H109.447ZM82.727 215V71.72H74.727V215H82.727ZM78.727 67.72H29.767V75.72H78.727V67.72ZM33.767 71.72V47H25.767V71.72H33.767ZM29.767 51H158.647V43H29.767V51ZM154.647 47V71.72H162.647V47H154.647ZM158.647 67.72H109.447V75.72H158.647V67.72ZM105.447 71.72V215H113.447V71.72H105.447ZM109.447 211H78.727V219H109.447V211ZM179.004 215H175.004V219H179.004V215ZM179.004 47V43H175.004V47H179.004ZM288.684 47H292.684V43H288.684V47ZM288.684 71.72V75.72H292.684V71.72H288.684ZM209.724 71.72V67.72H205.724V71.72H209.724ZM209.724 117.8H205.724V121.8H209.724V117.8ZM281.484 117.8H285.484V113.8H281.484V117.8ZM281.484 141.8V145.8H285.484V141.8H281.484ZM209.724 141.8V137.8H205.724V141.8H209.724ZM209.724 190.28H205.724V194.28H209.724V190.28ZM288.684 190.28H292.684V186.28H288.684V190.28ZM288.684 215V219H292.684V215H288.684ZM183.004 215V47H175.004V215H183.004ZM179.004 51H288.684V43H179.004V51ZM284.684 47V71.72H292.684V47H284.684ZM288.684 67.72H209.724V75.72H288.684V67.72ZM205.724 71.72V117.8H213.724V71.72H205.724ZM209.724 121.8H281.484V113.8H209.724V121.8ZM277.484 117.8V141.8H285.484V117.8H277.484ZM281.484 137.8H209.724V145.8H281.484V137.8ZM205.724 141.8V190.28H213.724V141.8H205.724ZM209.724 194.28H288.684V186.28H209.724V194.28ZM284.684 190.28V215H292.684V190.28H284.684ZM288.684 211H179.004V219H288.684V211ZM315.354 215H311.354V219H315.354V215ZM315.354 47V43H311.354V47H315.354ZM422.634 59.24L419.967 62.221L419.994 62.2455L420.022 62.2696L422.634 59.24ZM427.914 115.64L424.941 112.964L424.937 112.968L427.914 115.64ZM407.274 128.36L406.215 124.503L406.489 132.282L407.274 128.36ZM431.034 142.76L427.929 145.282L427.942 145.298L427.956 145.314L431.034 142.76ZM425.994 202.04L428.67 205.013L428.67 205.013L425.994 202.04ZM346.074 117.56H342.074V121.56H346.074V117.56ZM398.154 77.96L395.432 80.8912L395.486 80.9414L395.542 80.9896L398.154 77.96ZM346.074 71.72V67.72H342.074V71.72H346.074ZM346.074 190.04H342.074V194.04H346.074V190.04ZM401.514 183.8L404.084 186.865L404.093 186.857L401.514 183.8ZM401.274 147.32L403.862 144.27L403.862 144.27L401.274 147.32ZM346.074 140.6V136.6H342.074V140.6H346.074ZM319.354 215V47H311.354V215H319.354ZM315.354 51H382.794V43H315.354V51ZM382.794 51C399.665 51 411.84 54.9493 419.967 62.221L425.301 56.259C415.188 47.2107 400.803 43 382.794 43V51ZM420.022 62.2696C428.389 69.4827 432.554 78.6815 432.554 90.2H440.554C440.554 76.4384 435.439 64.9973 425.246 56.2103L420.022 62.2696ZM432.554 90.2C432.554 100.006 429.898 107.456 424.941 112.964L430.887 118.316C437.45 111.024 440.554 101.514 440.554 90.2H432.554ZM424.937 112.968C419.854 118.632 413.642 122.464 406.215 124.503L408.333 132.217C417.225 129.776 424.773 125.128 430.891 118.312L424.937 112.968ZM406.489 132.282C415.166 134.018 422.269 138.316 427.929 145.282L434.138 140.238C427.318 131.844 418.582 126.542 408.058 124.438L406.489 132.282ZM427.956 145.314C433.58 152.092 436.394 159.981 436.394 169.16H444.394C444.394 158.179 440.968 148.468 434.112 140.206L427.956 145.314ZM436.394 169.16C436.394 181.342 432.048 191.209 423.318 199.067L428.67 205.013C439.139 195.591 444.394 183.538 444.394 169.16H436.394ZM423.318 199.067C414.683 206.838 402.167 211 385.194 211V219C403.42 219 418.105 214.522 428.67 205.013L423.318 199.067ZM385.194 211H315.354V219H385.194V211ZM346.074 121.56H378.234V113.56H346.074V121.56ZM378.234 121.56C387.443 121.56 395.151 119.43 400.766 114.59L395.542 108.53C391.877 111.69 386.305 113.56 378.234 113.56V121.56ZM400.766 114.59C406.465 109.677 409.114 102.787 409.114 94.52H401.114C401.114 100.973 399.123 105.443 395.542 108.53L400.766 114.59ZM409.114 94.52C409.114 86.5092 406.423 79.8078 400.766 74.9304L395.542 80.9896C399.164 84.1122 401.114 88.4508 401.114 94.52H409.114ZM400.876 75.0288C395.363 69.9102 387.397 67.72 377.754 67.72V75.72C386.351 75.72 391.984 77.6898 395.432 80.8912L400.876 75.0288ZM377.754 67.72H346.074V75.72H377.754V67.72ZM342.074 71.72V117.56H350.074V71.72H342.074ZM346.074 194.04H380.394V186.04H346.074V194.04ZM380.394 194.04C390.075 194.04 398.159 191.835 404.084 186.865L398.943 180.735C394.949 184.085 388.953 186.04 380.394 186.04V194.04ZM404.093 186.857C410.252 181.661 413.194 174.466 413.194 165.8H405.194C405.194 172.494 403.016 177.299 398.934 180.743L404.093 186.857ZM413.194 165.8C413.194 156.959 410.162 149.616 403.862 144.27L398.686 150.37C402.946 153.984 405.194 158.961 405.194 165.8H413.194ZM403.862 144.27C397.668 139.015 389.538 136.6 379.914 136.6V144.6C388.21 144.6 394.319 146.665 398.686 150.37L403.862 144.27ZM379.914 136.6H346.074V144.6H379.914V136.6ZM342.074 140.6V190.04H350.074V140.6H342.074Z" fill="#9A2AD6"/>
</g>
<g filter="url(#filter1_d_307_76)">
<path d="M513.324 213V64.715H464.209V48.5H582.179V64.715H533.064V213H513.324ZM603.933 213V48.5H705.688V64.715H623.673V122.055H698.638V138.035H623.673V196.785H705.688V213H603.933ZM806.375 215.82C790.238 215.82 776.295 212.295 764.545 205.245C752.951 198.038 743.943 188.09 737.52 175.4C731.096 162.553 727.885 147.67 727.885 130.75C727.885 113.987 731.096 99.26 737.52 86.57C743.943 73.7233 752.951 63.6967 764.545 56.49C776.295 49.2833 790.238 45.68 806.375 45.68C825.175 45.68 840.45 50.2233 852.2 59.31C864.106 68.24 871.705 80.7733 874.995 96.91H853.14C850.633 86.7267 845.463 78.58 837.63 72.47C829.953 66.2033 819.535 63.07 806.375 63.07C794.625 63.07 784.363 65.8117 775.59 71.295C766.816 76.6217 760.001 84.3767 755.145 94.56C750.445 104.587 748.095 116.65 748.095 130.75C748.095 144.85 750.445 156.992 755.145 167.175C760.001 177.202 766.816 184.957 775.59 190.44C784.363 195.767 794.625 198.43 806.375 198.43C819.535 198.43 829.953 195.453 837.63 189.5C845.463 183.39 850.633 175.322 853.14 165.295H874.995C871.705 181.118 864.106 193.495 852.2 202.425C840.45 211.355 825.175 215.82 806.375 215.82Z" fill="#E9E9E9"/>
</g>
<defs>
<filter id="filter0_f_307_76" x="25.767" y="43" width="418.627" height="176" filterUnits="userSpaceOnUse" color-interpolation-filters="sRGB">
<feFlood flood-opacity="0" result="BackgroundImageFix"/>
<feBlend mode="normal" in="SourceGraphic" in2="BackgroundImageFix" result="shape"/>
<feGaussianBlur stdDeviation="2" result="effect1_foregroundBlur_307_76"/>
</filter>
<filter id="filter1_d_307_76" x="460.209" y="45.68" width="418.785" height="178.14" filterUnits="userSpaceOnUse" color-interpolation-filters="sRGB">
<feFlood flood-opacity="0" result="BackgroundImageFix"/>
<feColorMatrix in="SourceAlpha" type="matrix" values="0 0 0 0 0 0 0 0 0 0 0 0 0 0 0 0 0 0 127 0" result="hardAlpha"/>
<feOffset dy="4"/>
<feGaussianBlur stdDeviation="2"/>
<feComposite in2="hardAlpha" operator="out"/>
<feColorMatrix type="matrix" values="0 0 0 0 0 0 0 0 0 0 0 0 0 0 0 0 0 0 0.25 0"/>
<feBlend mode="normal" in2="BackgroundImageFix" result="effect1_dropShadow_307_76"/>
<feBlend mode="normal" in="SourceGraphic" in2="effect1_dropShadow_307_76" result="shape"/>
</filter>
</defs>
</svg>
