<svg width="1091" height="210" viewBox="0 0 1091 210" fill="none" xmlns="http://www.w3.org/2000/svg">
<g filter="url(#filter0_f_304_58)">
<path d="M287.254 186V42.72H238.294V18H367.174V42.72H317.974V186H287.254ZM387.531 186V18H497.211V42.72H418.251V88.8H490.011V112.8H418.251V161.28H497.211V186H387.531ZM523.881 186V18H591.321C608.761 18 622.041 22.08 631.161 30.24C640.441 38.24 645.081 48.56 645.081 61.2C645.081 71.76 642.201 80.24 636.441 86.64C630.841 92.88 623.961 97.12 615.801 99.36C625.401 101.28 633.321 106.08 639.561 113.76C645.801 121.28 648.921 130.08 648.921 140.16C648.921 153.44 644.121 164.4 634.521 173.04C624.921 181.68 611.321 186 593.721 186H523.881ZM554.601 88.56H586.761C595.401 88.56 602.041 86.56 606.681 82.56C611.321 78.56 613.641 72.88 613.641 65.52C613.641 58.48 611.321 52.96 606.681 48.96C602.201 44.8 595.401 42.72 586.281 42.72H554.601V88.56ZM554.601 161.04H588.921C598.041 161.04 605.081 158.96 610.041 154.8C615.161 150.48 617.721 144.48 617.721 136.8C617.721 128.96 615.081 122.8 609.801 118.32C604.521 113.84 597.401 111.6 588.441 111.6H554.601V161.04Z" fill="#9A2AD6"/>
<path d="M287.254 186H286.254V187H287.254V186ZM287.254 42.72H288.254V41.72H287.254V42.72ZM238.294 42.72H237.294V43.72H238.294V42.72ZM238.294 18V17H237.294V18H238.294ZM367.174 18H368.174V17H367.174V18ZM367.174 42.72V43.72H368.174V42.72H367.174ZM317.974 42.72V41.72H316.974V42.72H317.974ZM317.974 186V187H318.974V186H317.974ZM288.254 186V42.72H286.254V186H288.254ZM287.254 41.72H238.294V43.72H287.254V41.72ZM239.294 42.72V18H237.294V42.72H239.294ZM238.294 19H367.174V17H238.294V19ZM366.174 18V42.72H368.174V18H366.174ZM367.174 41.72H317.974V43.72H367.174V41.72ZM316.974 42.72V186H318.974V42.72H316.974ZM317.974 185H287.254V187H317.974V185ZM387.531 186H386.531V187H387.531V186ZM387.531 18V17H386.531V18H387.531ZM497.211 18H498.211V17H497.211V18ZM497.211 42.72V43.72H498.211V42.72H497.211ZM418.251 42.72V41.72H417.251V42.72H418.251ZM418.251 88.8H417.251V89.8H418.251V88.8ZM490.011 88.8H491.011V87.8H490.011V88.8ZM490.011 112.8V113.8H491.011V112.8H490.011ZM418.251 112.8V111.8H417.251V112.8H418.251ZM418.251 161.28H417.251V162.28H418.251V161.28ZM497.211 161.28H498.211V160.28H497.211V161.28ZM497.211 186V187H498.211V186H497.211ZM388.531 186V18H386.531V186H388.531ZM387.531 19H497.211V17H387.531V19ZM496.211 18V42.72H498.211V18H496.211ZM497.211 41.72H418.251V43.72H497.211V41.72ZM417.251 42.72V88.8H419.251V42.72H417.251ZM418.251 89.8H490.011V87.8H418.251V89.8ZM489.011 88.8V112.8H491.011V88.8H489.011ZM490.011 111.8H418.251V113.8H490.011V111.8ZM417.251 112.8V161.28H419.251V112.8H417.251ZM418.251 162.28H497.211V160.28H418.251V162.28ZM496.211 161.28V186H498.211V161.28H496.211ZM497.211 185H387.531V187H497.211V185ZM523.881 186H522.881V187H523.881V186ZM523.881 18V17H522.881V18H523.881ZM631.161 30.24L630.494 30.9852L630.501 30.9914L630.508 30.9974L631.161 30.24ZM636.441 86.64L635.697 85.971L635.696 85.9721L636.441 86.64ZM615.801 99.36L615.536 98.3957L615.605 100.341L615.801 99.36ZM639.561 113.76L638.785 114.391L638.791 114.399L639.561 113.76ZM634.521 173.04L635.19 173.783L635.19 173.783L634.521 173.04ZM554.601 88.56H553.601V89.56H554.601V88.56ZM606.681 48.96L606 49.6928L606.014 49.7053L606.028 49.7174L606.681 48.96ZM554.601 42.72V41.72H553.601V42.72H554.601ZM554.601 161.04H553.601V162.04H554.601V161.04ZM610.041 154.8L610.683 155.566L610.686 155.564L610.041 154.8ZM609.801 118.32L610.448 117.557L610.448 117.557L609.801 118.32ZM554.601 111.6V110.6H553.601V111.6H554.601ZM524.881 186V18H522.881V186H524.881ZM523.881 19H591.321V17H523.881V19ZM591.321 19C608.618 19 621.622 23.0473 630.494 30.9852L631.828 29.4947C622.459 21.1127 608.903 17 591.321 17V19ZM630.508 30.9974C639.56 38.8007 644.081 48.8404 644.081 61.2H646.081C646.081 48.2796 641.322 37.6793 631.814 29.4826L630.508 30.9974ZM644.081 61.2C644.081 71.5715 641.257 79.7939 635.697 85.971L637.184 87.309C643.145 80.686 646.081 71.9485 646.081 61.2H644.081ZM635.696 85.9721C630.226 92.0679 623.513 96.2059 615.536 98.3957L616.065 100.324C624.409 98.034 631.456 93.692 637.185 87.3079L635.696 85.9721ZM615.605 100.341C624.974 102.214 632.69 106.889 638.785 114.391L640.337 113.129C633.952 105.271 625.828 100.346 615.997 98.3794L615.605 100.341ZM638.791 114.399C644.877 121.733 647.921 130.305 647.921 140.16H649.921C649.921 129.855 646.724 120.827 640.33 113.121L638.791 114.399ZM647.921 140.16C647.921 153.166 643.234 163.852 633.852 172.297L635.19 173.783C645.007 164.948 649.921 153.714 649.921 140.16H647.921ZM633.852 172.297C624.493 180.72 611.164 185 593.721 185V187C611.477 187 625.348 182.64 635.19 173.783L633.852 172.297ZM593.721 185H523.881V187H593.721V185ZM554.601 89.56H586.761V87.56H554.601V89.56ZM586.761 89.56C595.543 89.56 602.45 87.5275 607.334 83.3174L606.028 81.8026C601.632 85.5924 595.258 87.56 586.761 87.56V89.56ZM607.334 83.3174C612.238 79.0892 614.641 73.1067 614.641 65.52H612.641C612.641 72.6533 610.403 78.0308 606.028 81.8026L607.334 83.3174ZM614.641 65.52C614.641 58.2373 612.228 52.4219 607.334 48.2026L606.028 49.7174C610.413 53.4981 612.641 58.7227 612.641 65.52H614.641ZM607.361 48.2272C602.623 43.8276 595.532 41.72 586.281 41.72V43.72C595.27 43.72 601.778 45.7724 606 49.6928L607.361 48.2272ZM586.281 41.72H554.601V43.72H586.281V41.72ZM553.601 42.72V88.56H555.601V42.72H553.601ZM554.601 162.04H588.921V160.04H554.601V162.04ZM588.921 162.04C598.181 162.04 605.482 159.929 610.683 155.566L609.398 154.034C604.68 157.991 597.901 160.04 588.921 160.04V162.04ZM610.686 155.564C616.065 151.025 618.721 144.726 618.721 136.8H616.721C616.721 144.234 614.256 149.935 609.396 154.036L610.686 155.564ZM618.721 136.8C618.721 128.71 615.983 122.254 610.448 117.557L609.154 119.083C614.179 123.346 616.721 129.21 616.721 136.8H618.721ZM610.448 117.557C604.939 112.884 597.567 110.6 588.441 110.6V112.6C597.235 112.6 604.102 114.796 609.154 119.083L610.448 117.557ZM588.441 110.6H554.601V112.6H588.441V110.6ZM553.601 111.6V161.04H555.601V111.6H553.601Z" fill="black"/>
</g>
<g filter="url(#filter1_d_304_58)">
<path d="M713.639 186V37.715H664.524V21.5H782.494V37.715H733.379V186H713.639ZM804.248 186V21.5H906.003V37.715H823.988V95.055H898.953V111.035H823.988V169.785H906.003V186H804.248ZM1006.69 188.82C990.553 188.82 976.61 185.295 964.86 178.245C953.267 171.038 944.258 161.09 937.835 148.4C931.412 135.553 928.2 120.67 928.2 103.75C928.2 86.9867 931.412 72.26 937.835 59.57C944.258 46.7233 953.267 36.6967 964.86 29.49C976.61 22.2833 990.553 18.68 1006.69 18.68C1025.49 18.68 1040.76 23.2233 1052.51 32.31C1064.42 41.24 1072.02 53.7733 1075.31 69.91H1053.45C1050.95 59.7267 1045.78 51.58 1037.94 45.47C1030.27 39.2033 1019.85 36.07 1006.69 36.07C994.94 36.07 984.678 38.8117 975.905 44.295C967.132 49.6217 960.317 57.3767 955.46 67.56C950.76 77.5867 948.41 89.65 948.41 103.75C948.41 117.85 950.76 129.992 955.46 140.175C960.317 150.202 967.132 157.957 975.905 163.44C984.678 168.767 994.94 171.43 1006.69 171.43C1019.85 171.43 1030.27 168.453 1037.94 162.5C1045.78 156.39 1050.95 148.322 1053.45 138.295H1075.31C1072.02 154.118 1064.42 166.495 1052.51 175.425C1040.76 184.355 1025.49 188.82 1006.69 188.82Z" fill="#E9E9E9"/>
<path d="M713.639 186H712.639V187H713.639V186ZM713.639 37.715H714.639V36.715H713.639V37.715ZM664.524 37.715H663.524V38.715H664.524V37.715ZM664.524 21.5V20.5H663.524V21.5H664.524ZM782.494 21.5H783.494V20.5H782.494V21.5ZM782.494 37.715V38.715H783.494V37.715H782.494ZM733.379 37.715V36.715H732.379V37.715H733.379ZM733.379 186V187H734.379V186H733.379ZM714.639 186V37.715H712.639V186H714.639ZM713.639 36.715H664.524V38.715H713.639V36.715ZM665.524 37.715V21.5H663.524V37.715H665.524ZM664.524 22.5H782.494V20.5H664.524V22.5ZM781.494 21.5V37.715H783.494V21.5H781.494ZM782.494 36.715H733.379V38.715H782.494V36.715ZM732.379 37.715V186H734.379V37.715H732.379ZM733.379 185H713.639V187H733.379V185ZM804.248 186H803.248V187H804.248V186ZM804.248 21.5V20.5H803.248V21.5H804.248ZM906.003 21.5H907.003V20.5H906.003V21.5ZM906.003 37.715V38.715H907.003V37.715H906.003ZM823.988 37.715V36.715H822.988V37.715H823.988ZM823.988 95.055H822.988V96.055H823.988V95.055ZM898.953 95.055H899.953V94.055H898.953V95.055ZM898.953 111.035V112.035H899.953V111.035H898.953ZM823.988 111.035V110.035H822.988V111.035H823.988ZM823.988 169.785H822.988V170.785H823.988V169.785ZM906.003 169.785H907.003V168.785H906.003V169.785ZM906.003 186V187H907.003V186H906.003ZM805.248 186V21.5H803.248V186H805.248ZM804.248 22.5H906.003V20.5H804.248V22.5ZM905.003 21.5V37.715H907.003V21.5H905.003ZM906.003 36.715H823.988V38.715H906.003V36.715ZM822.988 37.715V95.055H824.988V37.715H822.988ZM823.988 96.055H898.953V94.055H823.988V96.055ZM897.953 95.055V111.035H899.953V95.055H897.953ZM898.953 110.035H823.988V112.035H898.953V110.035ZM822.988 111.035V169.785H824.988V111.035H822.988ZM823.988 170.785H906.003V168.785H823.988V170.785ZM905.003 169.785V186H907.003V169.785H905.003ZM906.003 185H804.248V187H906.003V185ZM964.86 178.245L964.332 179.094L964.339 179.098L964.345 179.102L964.86 178.245ZM937.835 148.4L936.94 148.847L936.943 148.852L937.835 148.4ZM937.835 59.57L938.727 60.0216L938.729 60.0172L937.835 59.57ZM964.86 29.49L964.337 28.6375L964.332 28.6407L964.86 29.49ZM1052.51 32.31L1051.9 33.101L1051.91 33.1056L1051.91 33.11L1052.51 32.31ZM1075.31 69.91V70.91H1076.53L1076.29 69.7102L1075.31 69.91ZM1053.45 69.91L1052.48 70.149L1052.67 70.91H1053.45V69.91ZM1037.94 45.47L1037.31 46.2446L1037.32 46.2517L1037.33 46.2585L1037.94 45.47ZM975.905 44.295L976.424 45.1498L976.435 45.143L975.905 44.295ZM955.46 67.56L954.557 67.1295L954.554 67.1356L955.46 67.56ZM955.46 140.175L954.552 140.594L954.556 140.603L954.56 140.611L955.46 140.175ZM975.905 163.44L975.375 164.288L975.386 164.295L975.905 163.44ZM1037.94 162.5L1038.56 163.29L1038.56 163.289L1037.94 162.5ZM1053.45 138.295V137.295H1052.67L1052.48 138.052L1053.45 138.295ZM1075.31 138.295L1076.29 138.499L1076.54 137.295H1075.31V138.295ZM1052.51 175.425L1051.91 174.625L1051.91 174.629L1052.51 175.425ZM1006.69 187.82C990.702 187.82 976.943 184.329 965.374 177.388L964.345 179.102C976.277 186.261 990.404 189.82 1006.69 189.82V187.82ZM965.388 177.396C953.957 170.29 945.071 160.482 938.727 147.948L936.943 148.852C943.445 161.698 952.576 171.787 964.332 179.094L965.388 177.396ZM938.729 147.953C932.387 135.268 929.2 120.542 929.2 103.75H927.2C927.2 120.798 930.436 135.839 936.94 148.847L938.729 147.953ZM929.2 103.75C929.2 87.1157 932.386 72.5487 938.727 60.0216L936.943 59.1184C930.437 71.9713 927.2 86.8577 927.2 103.75H929.2ZM938.729 60.0172C945.074 47.3268 953.96 37.4432 965.388 30.3393L964.332 28.6407C952.573 35.9501 943.442 46.1198 936.94 59.1228L938.729 60.0172ZM965.383 30.3424C976.95 23.2477 990.706 19.68 1006.69 19.68V17.68C990.401 17.68 976.27 21.319 964.337 28.6376L965.383 30.3424ZM1006.69 19.68C1025.33 19.68 1040.37 24.1823 1051.9 33.101L1053.13 31.5189C1041.16 22.2643 1025.65 17.68 1006.69 17.68V19.68ZM1051.91 33.11C1063.6 41.8771 1071.08 54.1854 1074.33 70.1098L1076.29 69.7102C1072.96 53.3613 1065.24 40.6029 1053.11 31.51L1051.91 33.11ZM1075.31 68.91H1053.45V70.91H1075.31V68.91ZM1054.43 69.671C1051.87 59.2828 1046.58 50.9375 1038.56 44.6815L1037.33 46.2585C1044.98 52.2224 1050.03 60.1706 1052.48 70.149L1054.43 69.671ZM1038.58 44.6953C1030.67 38.2412 1020 35.07 1006.69 35.07V37.07C1019.7 37.07 1029.87 40.1654 1037.31 46.2446L1038.58 44.6953ZM1006.69 35.07C994.779 35.07 984.328 37.8514 975.375 43.447L976.435 45.143C985.029 39.772 995.101 37.07 1006.69 37.07V35.07ZM975.386 43.4402C966.43 48.8779 959.489 56.7886 954.557 67.1295L956.362 67.9905C961.144 57.9648 967.833 50.3654 976.424 45.1498L975.386 43.4402ZM954.554 67.1356C949.778 77.3262 947.41 89.5421 947.41 103.75H949.41C949.41 89.7579 951.742 77.8471 956.365 67.9844L954.554 67.1356ZM947.41 103.75C947.41 117.959 949.778 130.25 954.552 140.594L956.368 139.756C951.742 129.733 949.41 117.741 949.41 103.75H947.41ZM954.56 140.611C959.492 150.793 966.43 158.697 975.375 164.288L976.435 162.592C967.834 157.216 961.141 149.61 956.36 139.739L954.56 140.611ZM975.386 164.295C984.337 169.73 994.784 172.43 1006.69 172.43V170.43C995.096 170.43 985.019 167.804 976.424 162.585L975.386 164.295ZM1006.69 172.43C1019.99 172.43 1030.65 169.421 1038.56 163.29L1037.33 161.71C1029.88 167.486 1019.71 170.43 1006.69 170.43V172.43ZM1038.56 163.289C1046.58 157.035 1051.87 148.771 1054.43 138.538L1052.48 138.052C1050.03 147.872 1044.98 155.745 1037.33 161.711L1038.56 163.289ZM1053.45 139.295H1075.31V137.295H1053.45V139.295ZM1074.33 138.091C1071.09 153.699 1063.61 165.854 1051.91 174.625L1053.11 176.225C1065.23 167.136 1072.95 154.538 1076.29 138.499L1074.33 138.091ZM1051.91 174.629C1040.38 183.394 1025.33 187.82 1006.69 187.82V189.82C1025.65 189.82 1041.15 185.316 1053.12 176.221L1051.91 174.629Z" fill="#CB69FF"/>
<path d="M713.639 186H712.639V187H713.639V186ZM713.639 37.715H714.639V36.715H713.639V37.715ZM664.524 37.715H663.524V38.715H664.524V37.715ZM664.524 21.5V20.5H663.524V21.5H664.524ZM782.494 21.5H783.494V20.5H782.494V21.5ZM782.494 37.715V38.715H783.494V37.715H782.494ZM733.379 37.715V36.715H732.379V37.715H733.379ZM733.379 186V187H734.379V186H733.379ZM714.639 186V37.715H712.639V186H714.639ZM713.639 36.715H664.524V38.715H713.639V36.715ZM665.524 37.715V21.5H663.524V37.715H665.524ZM664.524 22.5H782.494V20.5H664.524V22.5ZM781.494 21.5V37.715H783.494V21.5H781.494ZM782.494 36.715H733.379V38.715H782.494V36.715ZM732.379 37.715V186H734.379V37.715H732.379ZM733.379 185H713.639V187H733.379V185ZM804.248 186H803.248V187H804.248V186ZM804.248 21.5V20.5H803.248V21.5H804.248ZM906.003 21.5H907.003V20.5H906.003V21.5ZM906.003 37.715V38.715H907.003V37.715H906.003ZM823.988 37.715V36.715H822.988V37.715H823.988ZM823.988 95.055H822.988V96.055H823.988V95.055ZM898.953 95.055H899.953V94.055H898.953V95.055ZM898.953 111.035V112.035H899.953V111.035H898.953ZM823.988 111.035V110.035H822.988V111.035H823.988ZM823.988 169.785H822.988V170.785H823.988V169.785ZM906.003 169.785H907.003V168.785H906.003V169.785ZM906.003 186V187H907.003V186H906.003ZM805.248 186V21.5H803.248V186H805.248ZM804.248 22.5H906.003V20.5H804.248V22.5ZM905.003 21.5V37.715H907.003V21.5H905.003ZM906.003 36.715H823.988V38.715H906.003V36.715ZM822.988 37.715V95.055H824.988V37.715H822.988ZM823.988 96.055H898.953V94.055H823.988V96.055ZM897.953 95.055V111.035H899.953V95.055H897.953ZM898.953 110.035H823.988V112.035H898.953V110.035ZM822.988 111.035V169.785H824.988V111.035H822.988ZM823.988 170.785H906.003V168.785H823.988V170.785ZM905.003 169.785V186H907.003V169.785H905.003ZM906.003 185H804.248V187H906.003V185ZM964.86 178.245L964.332 179.094L964.339 179.098L964.345 179.102L964.86 178.245ZM937.835 148.4L936.94 148.847L936.943 148.852L937.835 148.4ZM937.835 59.57L938.727 60.0216L938.729 60.0172L937.835 59.57ZM964.86 29.49L964.337 28.6375L964.332 28.6407L964.86 29.49ZM1052.51 32.31L1051.9 33.101L1051.91 33.1056L1051.91 33.11L1052.51 32.31ZM1075.31 69.91V70.91H1076.53L1076.29 69.7102L1075.31 69.91ZM1053.45 69.91L1052.48 70.149L1052.67 70.91H1053.45V69.91ZM1037.94 45.47L1037.31 46.2446L1037.32 46.2517L1037.33 46.2585L1037.94 45.47ZM975.905 44.295L976.424 45.1498L976.435 45.143L975.905 44.295ZM955.46 67.56L954.557 67.1295L954.554 67.1356L955.46 67.56ZM955.46 140.175L954.552 140.594L954.556 140.603L954.56 140.611L955.46 140.175ZM975.905 163.44L975.375 164.288L975.386 164.295L975.905 163.44ZM1037.94 162.5L1038.56 163.29L1038.56 163.289L1037.94 162.5ZM1053.45 138.295V137.295H1052.67L1052.48 138.052L1053.45 138.295ZM1075.31 138.295L1076.29 138.499L1076.54 137.295H1075.31V138.295ZM1052.51 175.425L1051.91 174.625L1051.91 174.629L1052.51 175.425ZM1006.69 187.82C990.702 187.82 976.943 184.329 965.374 177.388L964.345 179.102C976.277 186.261 990.404 189.82 1006.69 189.82V187.82ZM965.388 177.396C953.957 170.29 945.071 160.482 938.727 147.948L936.943 148.852C943.445 161.698 952.576 171.787 964.332 179.094L965.388 177.396ZM938.729 147.953C932.387 135.268 929.2 120.542 929.2 103.75H927.2C927.2 120.798 930.436 135.839 936.94 148.847L938.729 147.953ZM929.2 103.75C929.2 87.1157 932.386 72.5487 938.727 60.0216L936.943 59.1184C930.437 71.9713 927.2 86.8577 927.2 103.75H929.2ZM938.729 60.0172C945.074 47.3268 953.96 37.4432 965.388 30.3393L964.332 28.6407C952.573 35.9501 943.442 46.1198 936.94 59.1228L938.729 60.0172ZM965.383 30.3424C976.95 23.2477 990.706 19.68 1006.69 19.68V17.68C990.401 17.68 976.27 21.319 964.337 28.6376L965.383 30.3424ZM1006.69 19.68C1025.33 19.68 1040.37 24.1823 1051.9 33.101L1053.13 31.5189C1041.16 22.2643 1025.65 17.68 1006.69 17.68V19.68ZM1051.91 33.11C1063.6 41.8771 1071.08 54.1854 1074.33 70.1098L1076.29 69.7102C1072.96 53.3613 1065.24 40.6029 1053.11 31.51L1051.91 33.11ZM1075.31 68.91H1053.45V70.91H1075.31V68.91ZM1054.43 69.671C1051.87 59.2828 1046.58 50.9375 1038.56 44.6815L1037.33 46.2585C1044.98 52.2224 1050.03 60.1706 1052.48 70.149L1054.43 69.671ZM1038.58 44.6953C1030.67 38.2412 1020 35.07 1006.69 35.07V37.07C1019.7 37.07 1029.87 40.1654 1037.31 46.2446L1038.58 44.6953ZM1006.69 35.07C994.779 35.07 984.328 37.8514 975.375 43.447L976.435 45.143C985.029 39.772 995.101 37.07 1006.69 37.07V35.07ZM975.386 43.4402C966.43 48.8779 959.489 56.7886 954.557 67.1295L956.362 67.9905C961.144 57.9648 967.833 50.3654 976.424 45.1498L975.386 43.4402ZM954.554 67.1356C949.778 77.3262 947.41 89.5421 947.41 103.75H949.41C949.41 89.7579 951.742 77.8471 956.365 67.9844L954.554 67.1356ZM947.41 103.75C947.41 117.959 949.778 130.25 954.552 140.594L956.368 139.756C951.742 129.733 949.41 117.741 949.41 103.75H947.41ZM954.56 140.611C959.492 150.793 966.43 158.697 975.375 164.288L976.435 162.592C967.834 157.216 961.141 149.61 956.36 139.739L954.56 140.611ZM975.386 164.295C984.337 169.73 994.784 172.43 1006.69 172.43V170.43C995.096 170.43 985.019 167.804 976.424 162.585L975.386 164.295ZM1006.69 172.43C1019.99 172.43 1030.65 169.421 1038.56 163.29L1037.33 161.71C1029.88 167.486 1019.71 170.43 1006.69 170.43V172.43ZM1038.56 163.289C1046.58 157.035 1051.87 148.771 1054.43 138.538L1052.48 138.052C1050.03 147.872 1044.98 155.745 1037.33 161.711L1038.56 163.289ZM1053.45 139.295H1075.31V137.295H1053.45V139.295ZM1074.33 138.091C1071.09 153.699 1063.61 165.854 1051.91 174.625L1053.11 176.225C1065.23 167.136 1072.95 154.538 1076.29 138.499L1074.33 138.091ZM1051.91 174.629C1040.38 183.394 1025.33 187.82 1006.69 187.82V189.82C1025.65 189.82 1041.15 185.316 1053.12 176.221L1051.91 174.629Z" fill="black" fill-opacity="0.2"/>
</g>
<path fill-rule="evenodd" clip-rule="evenodd" d="M83.9286 100C83.9286 101.837 85.8086 103.333 88.125 103.333C90.4414 103.333 92.3214 101.837 92.3214 100C92.3214 98.1633 90.4414 96.6667 88.125 96.6667C85.8086 96.6667 83.9286 98.1633 83.9286 100ZM92.3214 160C92.3214 158.163 90.4414 156.667 88.125 156.667C85.8086 156.667 83.9286 158.163 83.9286 160C83.9286 161.837 85.8086 163.333 88.125 163.333C90.4414 163.333 92.3214 161.837 92.3214 160ZM58.75 100C58.75 98.1633 56.87 96.6667 54.5536 96.6667C52.2371 96.6667 50.3571 98.1633 50.3571 100C50.3571 101.837 52.2371 103.333 54.5536 103.333C56.87 103.333 58.75 101.837 58.75 100ZM58.75 140C58.75 138.163 56.87 136.667 54.5536 136.667C52.2371 136.667 50.3571 138.163 50.3571 140C50.3571 141.837 52.2371 143.333 54.5536 143.333C56.87 143.333 58.75 141.837 58.75 140ZM83.9286 66.6667C83.9286 68.5033 85.8086 70 88.125 70C90.4414 70 92.3214 68.5033 92.3214 66.6667C92.3214 64.83 90.4414 63.3333 88.125 63.3333C85.8086 63.3333 83.9286 64.83 83.9286 66.6667ZM58.75 70V90.6133C62.3086 91.62 65.1034 93.8433 66.3665 96.6667H76.3121C78.0494 92.7933 82.6613 90 88.125 90C95.0659 90 100.714 94.4867 100.714 100C100.714 104.34 97.1935 108.003 92.3214 109.387V150.613C97.1935 151.997 100.714 155.66 100.714 160C100.714 164.34 97.1935 168.003 92.3214 169.387V180C92.3214 181.84 90.4456 183.333 88.125 183.333C85.8044 183.333 83.9286 181.84 83.9286 180V169.383C79.644 168.173 76.4505 165.193 75.733 161.533L59.9796 149.023C59.967 149.017 59.967 149.003 59.9544 148.993C58.3136 149.62 56.4965 150 54.5536 150C47.6127 150 41.9643 145.513 41.9643 140C41.9643 134.487 47.6127 130 54.5536 130C61.4945 130 67.1429 134.487 67.1429 140C67.1429 141.54 66.6645 142.987 65.8755 144.29C65.8881 144.3 65.9007 144.303 65.9133 144.31L78.1123 154.003C79.5853 152.457 81.5912 151.277 83.9286 150.613V109.383C80.37 108.38 77.5752 106.157 76.3121 103.333H66.3665C64.6292 107.207 60.0173 110 54.5536 110C47.6127 110 41.9643 105.513 41.9643 100C41.9643 95.66 45.4851 91.9967 50.3571 90.6133V66.6667C50.3571 64.8267 52.2329 63.3333 54.5536 63.3333H76.3121C77.5752 60.51 80.37 58.2867 83.9286 57.28V46.6667C83.9286 44.8267 85.8044 43.3333 88.125 43.3333C90.4456 43.3333 92.3214 44.8267 92.3214 46.6667V57.28C97.1935 58.6633 100.714 62.3267 100.714 66.6667C100.714 72.18 95.0659 76.6667 88.125 76.6667C82.6613 76.6667 78.0494 73.8733 76.3121 70H58.75ZM225.067 134.15C231.316 129.787 235 123.473 235 116.667C235 109.533 231.009 102.98 224.152 98.58C225.768 95.9033 226.607 92.9867 226.607 90C226.607 83.12 222.062 76.7833 214.891 73.1667C217.056 70.17 218.214 66.79 218.214 63.3333C218.214 54.7333 211.336 47.2567 201.382 44.4967C201.412 44.1067 201.429 43.72 201.429 43.3333C201.429 32.3033 190.136 23.3333 176.25 23.3333C172.863 23.3333 169.565 23.88 166.485 24.9333C162.876 16.2533 152.498 10 140.58 10C122.922 10 115.07 22.6533 113.388 29.3467C113.358 29.4567 113.396 29.5633 113.388 29.6767C113.375 29.79 113.304 29.8833 113.304 30V186.467C112.355 195.93 102.238 203.333 90.2232 203.333C78.2508 203.333 68.1626 195.903 67.252 186.413C67.0841 184.677 65.137 183.333 62.9464 183.333C61.6371 183.333 60.4034 183.82 59.6061 184.647C56.3496 188.05 51.4482 190 46.1607 190C36.9034 190 29.375 184.02 29.375 176.667C29.375 173.64 30.7011 170.747 33.2189 168.297C34.352 167.193 34.4779 165.637 33.5253 164.427C32.5769 163.217 30.7808 162.617 29.0099 162.947C27.6041 163.207 26.3494 163.333 25.1786 163.333C15.9213 163.333 8.39286 157.353 8.39286 150C8.39286 144.503 12.7865 139.503 19.3204 137.557C20.8772 137.093 21.9431 135.947 22.0396 134.633C22.1362 133.317 21.2465 132.077 19.7778 131.473C12.7529 128.597 8.39286 122.92 8.39286 116.667C8.39286 110.787 12.199 105.453 18.5776 102.4C19.5721 101.923 20.2729 101.14 20.5163 100.237C20.7555 99.33 20.5121 98.39 19.8449 97.6333C17.8432 95.3633 16.7857 92.7267 16.7857 90C16.7857 84.4633 21.2255 79.4533 27.8265 77.53C29.1316 77.15 30.1178 76.28 30.4577 75.21C30.7934 74.1367 30.4367 73 29.5093 72.1767C26.7145 69.7 25.1786 66.56 25.1786 63.3333C25.1786 56.8733 31.0074 51.37 39.031 50.2433C40.1556 50.0833 41.1586 49.5667 41.7922 48.81C42.4259 48.0533 42.6441 47.1233 42.4007 46.2367C42.107 45.1967 41.9643 44.2467 41.9643 43.3333C41.9643 35.98 49.4927 30 58.75 30C62.3841 30 65.8881 30.9633 68.8886 32.7867C70.1097 33.5267 71.7421 33.68 73.1396 33.1867C74.5454 32.69 75.4938 31.6267 75.6238 30.4133C76.4212 22.7067 84.6797 16.6667 94.4196 16.6667C99.0945 16.6667 102.959 17.86 106.233 20.3133C107.924 21.5767 110.58 21.5133 112.166 20.1733C113.757 18.8333 113.681 16.7267 111.994 15.4633C107.156 11.8367 101.243 10 94.4196 10C82.5018 10 72.124 16.2533 68.5151 24.9333C65.4349 23.88 62.1365 23.3333 58.75 23.3333C44.864 23.3333 33.5714 32.3033 33.5714 43.3333C33.5714 43.72 33.5882 44.1067 33.6176 44.4967C23.6637 47.2567 16.7857 54.7333 16.7857 63.3333C16.7857 66.79 17.9439 70.17 20.1093 73.1667C12.9376 76.7833 8.39286 83.12 8.39286 90C8.39286 92.9867 9.23214 95.9033 10.8478 98.58C3.9908 102.98 0 109.533 0 116.667C0 123.473 3.68447 129.787 9.93295 134.15C3.80197 137.873 0 143.72 0 150C0 160.31 9.8742 168.823 22.5054 169.887C21.4983 172.047 20.9821 174.327 20.9821 176.667C20.9821 187.697 32.2747 196.667 46.1607 196.667C51.3727 196.667 56.3329 195.41 60.4957 193.107C64.7761 202.953 76.6058 210 90.2232 210C106.623 210 120.442 199.86 121.684 186.92C121.688 186.877 121.663 186.837 121.663 186.793C121.667 186.747 121.696 186.713 121.696 186.667V30.3667C122.318 28.32 126.459 16.6667 140.58 16.6667C150.32 16.6667 158.579 22.7067 159.376 30.4133C159.506 31.6267 160.455 32.69 161.86 33.1867C163.258 33.68 164.89 33.5267 166.111 32.7867C169.112 30.9633 172.616 30 176.25 30C185.507 30 193.036 35.98 193.036 43.3333C193.036 44.2467 192.893 45.1967 192.599 46.2367C192.356 47.1233 192.574 48.0533 193.208 48.81C193.841 49.5667 194.844 50.0833 195.969 50.2433C203.993 51.37 209.821 56.8733 209.821 63.3333C209.821 66.56 208.286 69.7 205.491 72.1767C204.563 73 204.207 74.1367 204.542 75.21C204.882 76.28 205.868 77.15 207.173 77.53C213.774 79.4533 218.214 84.4633 218.214 90C218.214 92.7267 217.157 95.3633 215.155 97.6333C214.488 98.39 214.244 99.33 214.484 100.237C214.727 101.14 215.428 101.923 216.422 102.4C222.801 105.453 226.607 110.787 226.607 116.667C226.607 122.92 222.247 128.597 215.222 131.473C213.753 132.077 212.864 133.317 212.96 134.633C213.057 135.947 214.123 137.093 215.68 137.557C222.213 139.503 226.607 144.503 226.607 150C226.607 157.353 219.079 163.333 209.821 163.333C208.651 163.333 207.396 163.207 205.99 162.947C204.228 162.617 202.427 163.217 201.475 164.427C200.522 165.637 200.648 167.193 201.781 168.297C204.299 170.747 205.625 173.64 205.625 176.667C205.625 184.02 198.097 190 188.839 190C183.535 190 178.642 188.027 175.419 184.583C174.336 183.433 172.452 182.963 170.736 183.41C170.115 183.573 169.569 183.843 169.129 184.187C168.348 184.74 167.832 185.527 167.748 186.413C166.837 195.903 156.749 203.333 144.777 203.333C139.502 203.333 134.525 201.957 130.383 199.353C128.558 198.21 125.926 198.457 124.487 199.897C123.048 201.34 123.358 203.437 125.171 204.58C130.731 208.073 137.697 210 144.777 210C158.403 210 170.241 202.94 174.513 193.083C178.663 195.403 183.615 196.667 188.839 196.667C202.725 196.667 214.018 187.697 214.018 176.667C214.018 174.327 213.502 172.047 212.495 169.887C225.126 168.823 235 160.31 235 150C235 143.72 231.198 137.873 225.067 134.15ZM151.071 160C151.071 161.84 152.947 163.333 155.268 163.333C161.386 163.333 167.857 168.473 167.857 173.333C167.857 175.173 169.733 176.667 172.054 176.667C174.374 176.667 176.25 175.173 176.25 173.333C176.25 164.767 166.053 156.667 155.268 156.667C152.947 156.667 151.071 158.16 151.071 160ZM188.839 70C182.721 70 176.25 64.86 176.25 60C176.25 58.16 174.374 56.6667 172.054 56.6667C169.733 56.6667 167.857 58.16 167.857 60C167.857 68.5667 178.054 76.6667 188.839 76.6667C191.16 76.6667 193.036 75.1733 193.036 73.3333C193.036 71.4933 191.16 70 188.839 70ZM138.482 143.333C140.803 143.333 142.679 141.84 142.679 140C142.679 135.14 149.149 130 155.268 130C157.588 130 159.464 128.507 159.464 126.667C159.464 124.827 157.588 123.333 155.268 123.333C144.483 123.333 134.286 131.433 134.286 140C134.286 141.84 136.162 143.333 138.482 143.333ZM155.268 103.333C157.588 103.333 159.464 101.84 159.464 100C159.464 98.16 157.588 96.6667 155.268 96.6667C149.149 96.6667 142.679 91.5267 142.679 86.6667C142.679 84.8267 140.803 83.3333 138.482 83.3333C136.162 83.3333 134.286 84.8267 134.286 86.6667C134.286 95.2333 144.483 103.333 155.268 103.333ZM197.232 90C194.912 90 193.036 91.4933 193.036 93.3333C193.036 98.1933 186.565 103.333 180.446 103.333C178.126 103.333 176.25 104.827 176.25 106.667C176.25 108.507 178.126 110 180.446 110C191.231 110 201.429 101.9 201.429 93.3333C201.429 91.4933 199.553 90 197.232 90ZM180.446 130C178.126 130 176.25 131.493 176.25 133.333C176.25 135.173 178.126 136.667 180.446 136.667C186.565 136.667 193.036 141.807 193.036 146.667C193.036 148.507 194.912 150 197.232 150C199.553 150 201.429 148.507 201.429 146.667C201.429 138.1 191.231 130 180.446 130ZM134.286 56.6667C134.286 48.1 144.483 40 155.268 40C157.588 40 159.464 41.4933 159.464 43.3333C159.464 45.1733 157.588 46.6667 155.268 46.6667C149.149 46.6667 142.679 51.8067 142.679 56.6667C142.679 58.5067 140.803 60 138.482 60C136.162 60 134.286 58.5067 134.286 56.6667Z" fill="#F4E0FF"/>
<defs>
<filter id="filter0_f_304_58" x="234.294" y="14" width="418.627" height="176" filterUnits="userSpaceOnUse" color-interpolation-filters="sRGB">
<feFlood flood-opacity="0" result="BackgroundImageFix"/>
<feBlend mode="normal" in="SourceGraphic" in2="BackgroundImageFix" result="shape"/>
<feGaussianBlur stdDeviation="2" result="effect1_foregroundBlur_304_58"/>
</filter>
<filter id="filter1_d_304_58" x="660.524" y="18.68" width="418.785" height="178.14" filterUnits="userSpaceOnUse" color-interpolation-filters="sRGB">
<feFlood flood-opacity="0" result="BackgroundImageFix"/>
<feColorMatrix in="SourceAlpha" type="matrix" values="0 0 0 0 0 0 0 0 0 0 0 0 0 0 0 0 0 0 127 0" result="hardAlpha"/>
<feOffset dy="4"/>
<feGaussianBlur stdDeviation="2"/>
<feComposite in2="hardAlpha" operator="out"/>
<feColorMatrix type="matrix" values="0 0 0 0 0 0 0 0 0 0 0 0 0 0 0 0 0 0 0.25 0"/>
<feBlend mode="normal" in2="BackgroundImageFix" result="effect1_dropShadow_304_58"/>
<feBlend mode="normal" in="SourceGraphic" in2="effect1_dropShadow_304_58" result="shape"/>
</filter>
</defs>
</svg>
